<svg width="80" height="80" viewBox="0 0 80 80" fill="none" xmlns="http://www.w3.org/2000/svg">
<path d="M33.5998 36.2C33.7665 35.1 34.1332 34.1334 34.5998 33.3C35.0665 32.4667 35.7332 31.7667 36.5665 31.2334C37.3665 30.7334 38.3665 30.5 39.5998 30.4667C40.3665 30.5 41.0665 30.6334 41.6998 30.9C42.3665 31.2 42.9665 31.6 43.4332 32.1C43.8998 32.6 44.2665 33.2 44.5665 33.8667C44.8665 34.5334 44.9998 35.2667 45.0332 36H50.9998C50.9332 34.4334 50.6332 33 50.0665 31.7C49.4998 30.4 48.7332 29.2667 47.7332 28.3334C46.7332 27.4 45.5332 26.6667 44.1332 26.1334C42.7332 25.6 41.1998 25.3667 39.4998 25.3667C37.3332 25.3667 35.4332 25.7334 33.8332 26.5C32.2332 27.2667 30.8998 28.2667 29.8332 29.5667C28.7665 30.8667 27.9665 32.3667 27.4665 34.1C26.9665 35.8334 26.6665 37.6334 26.6665 39.5667V40.4667C26.6665 42.4 26.9332 44.2 27.4332 45.9334C27.9332 47.6667 28.7332 49.1667 29.7998 50.4334C30.8665 51.7 32.1998 52.7334 33.7998 53.4667C35.3998 54.2 37.2998 54.6 39.4665 54.6C41.0332 54.6 42.4998 54.3334 43.8665 53.8334C45.2332 53.3334 46.4332 52.6334 47.4665 51.7334C48.4998 50.8334 49.3332 49.8 49.9332 48.6C50.5332 47.4 50.8998 46.1334 50.9332 44.7667H44.9665C44.9332 45.4667 44.7665 46.1 44.4665 46.7C44.1665 47.3 43.7665 47.8 43.2665 48.2334C42.7665 48.6667 42.1998 49 41.5332 49.2334C40.8998 49.4667 40.2332 49.5334 39.5332 49.5667C38.3332 49.5334 37.3332 49.3 36.5665 48.8C35.7332 48.2667 35.0665 47.5667 34.5998 46.7334C34.1332 45.9 33.7665 44.9 33.5998 43.8C33.4283 42.6971 33.3391 41.5829 33.3332 40.4667V39.5667C33.3332 38.4 33.4332 37.3 33.5998 36.2ZM39.9998 6.66669C21.5998 6.66669 6.6665 21.6 6.6665 40C6.6665 58.4 21.5998 73.3334 39.9998 73.3334C58.3998 73.3334 73.3332 58.4 73.3332 40C73.3332 21.6 58.3998 6.66669 39.9998 6.66669ZM39.9998 66.6667C25.2998 66.6667 13.3332 54.7 13.3332 40C13.3332 25.3 25.2998 13.3334 39.9998 13.3334C54.6998 13.3334 66.6665 25.3 66.6665 40C66.6665 54.7 54.6998 66.6667 39.9998 66.6667Z" fill="white"/>
</svg>
