<svg width="84" height="84" viewBox="0 0 84 84" fill="none" xmlns="http://www.w3.org/2000/svg">
<path d="M17 24.9143C17 22.8153 17.8338 20.8023 19.318 19.318C20.8023 17.8338 22.8153 17 24.9143 17H59.7371C61.8361 17 63.8492 17.8338 65.3334 19.318C66.8176 20.8023 67.6514 22.8153 67.6514 24.9143C67.6514 27.0133 66.8176 29.0263 65.3334 30.5105C63.8492 31.9947 61.8361 32.8286 59.7371 32.8286H24.9143C22.8153 32.8286 20.8023 31.9947 19.318 30.5105C17.8338 29.0263 17 27.0133 17 24.9143ZM19.3743 39.4228C18.7446 39.4228 18.1407 39.6729 17.6954 40.1182C17.2501 40.5634 17 41.1673 17 41.797C17 42.4267 17.2501 43.0306 17.6954 43.4759C18.1407 43.9212 18.7446 44.1713 19.3743 44.1713H65.2771C65.9068 44.1713 66.5108 43.9212 66.956 43.4759C67.4013 43.0306 67.6514 42.4267 67.6514 41.797C67.6514 41.1673 67.4013 40.5634 66.956 40.1182C66.5108 39.6729 65.9068 39.4228 65.2771 39.4228H19.3743ZM19.3743 50.756C18.7446 50.756 18.1407 51.0062 17.6954 51.4514C17.2501 51.8967 17 52.5006 17 53.1303C17 53.76 17.2501 54.3639 17.6954 54.8092C18.1407 55.2544 18.7446 55.5046 19.3743 55.5046H65.2771C65.9068 55.5046 66.5108 55.2544 66.956 54.8092C67.4013 54.3639 67.6514 53.76 67.6514 53.1303C67.6514 52.5006 67.4013 51.8967 66.956 51.4514C66.5108 51.0062 65.9068 50.756 65.2771 50.756H19.3743ZM19.3743 62.1114C18.7446 62.1114 18.1407 62.3616 17.6954 62.8068C17.2501 63.2521 17 63.856 17 64.4857C17 65.1154 17.2501 65.7193 17.6954 66.1646C18.1407 66.6099 18.7446 66.86 19.3743 66.86H65.2771C65.9068 66.86 66.5108 66.6099 66.956 66.1646C67.4013 65.7193 67.6514 65.1154 67.6514 64.4857C67.6514 63.856 67.4013 63.2521 66.956 62.8068C66.5108 62.3616 65.9068 62.1114 65.2771 62.1114H19.3743Z" fill="white"/>
</svg>
